<svg width="179" height="168" viewBox="0 0 179 168" fill="none" xmlns="http://www.w3.org/2000/svg">
<g clip-path="url(#clip0_0_1)">
<path d="M173.236 136.228C171.537 135.278 169.842 134.342 168.158 133.414C164.341 131.309 160.734 129.318 157.179 127.21C154.433 125.58 151.96 123.869 149.783 122.091C150.589 120.204 151.371 118.255 152.051 116.199C156.274 103.408 156.959 89.779 154.149 74.533C149.02 46.716 134.635 26.236 111.397 13.662C94.6445 4.597 77.3085 0 59.8735 0C42.2065 0 24.1615 4.725 6.23251 14.048C4.84651 14.77 3.94051 15.612 3.44051 16.083C1.16151 18.064 -0.102487 20.971 0.00651254 23.992C0.116513 27.046 1.61751 29.882 4.08151 31.691C14.0225 38.991 20.3775 48.308 23.5095 60.175C24.6345 64.435 25.2825 69.524 26.0335 75.416C26.3455 77.864 26.6745 80.445 27.0625 83.186C27.0985 83.436 27.1435 83.686 27.1975 83.936C29.4925 94.356 31.8215 103.949 37.0855 115.833C47.6705 139.732 65.8795 153.27 91.2055 156.068C93.0475 156.273 94.9195 156.376 96.7675 156.376C105.037 156.376 113.456 154.313 121.797 150.239C123.318 149.497 124.603 148.392 125.558 147.049C132.891 153.822 140.98 159.945 149.797 165.391C152.327 166.954 154.984 167.745 157.685 167.745C160.736 167.745 163.662 166.745 166.381 164.77C171.995 160.698 175.896 154.957 177.971 147.709C179.243 143.249 177.284 138.494 173.236 136.228Z" fill="#10C200"/>
<path d="M152.075 135.811C146.737 132.645 141.807 128.912 137.823 124.538C139.477 120.567 141.284 116.906 142.552 113.067C146.53 101.016 146.59 88.711 144.311 76.348C139.946 52.672 128.024 34.031 106.635 22.458C74.7545 5.20699 42.6985 6.35499 10.8485 22.918C10.5685 23.064 10.3515 23.328 9.99551 23.632C21.9575 32.416 29.5445 43.874 33.1735 57.623C34.9625 64.399 35.5865 72.087 36.9585 81.784C39.4205 92.962 41.5655 101.265 46.2235 111.784C55.1345 131.903 70.2905 143.698 92.2985 146.131C101.053 147.1 109.401 145.161 117.403 141.254C115.278 138.833 113.169 136.533 111.172 134.143C101.883 123.024 94.8155 112.108 89.1745 98.873C84.8105 88.633 83.1745 83.873 76.2985 66.497C70.3965 54.395 61.7085 44.535 50.2785 37.229C49.3155 36.613 48.3525 35.997 47.3905 35.381C47.9465 35.276 48.4075 35.362 48.7825 35.592C54.2005 38.914 59.8755 41.895 64.9625 45.668C75.5785 53.543 83.1725 64.077 89.4615 75.555C94.5615 84.858 99.3575 94.326 104.396 103.664C116.441 125.994 133.488 143.57 155.044 156.88C157.118 158.16 158.737 157.957 160.503 156.677C164.588 153.713 167.008 149.649 168.353 144.956C162.843 141.874 157.387 138.962 152.075 135.811Z" fill="#21E900"/>
</g>
<defs>
<clipPath id="clip0_0_1">
<rect width="178.36" height="167.74" fill="white"/>
</clipPath>
</defs>
</svg>
